<?xml version="1.0" encoding="utf-8"?>
<!-- Generator: Adobe Illustrator 18.1.0, SVG Export Plug-In . SVG Version: 6.00 Build 0)  -->
<!DOCTYPE svg PUBLIC "-//W3C//DTD SVG 1.1//EN" "http://www.w3.org/Graphics/SVG/1.1/DTD/svg11.dtd">
<svg version="1.1" id="Layer_1" xmlns="http://www.w3.org/2000/svg" xmlns:xlink="http://www.w3.org/1999/xlink" x="0px" y="0px"
	 viewBox="-340.7 323 248.7 192.3" enable-background="new -340.7 323 248.7 192.3" xml:space="preserve">
<g>
	<polygon fill="#E5232D" points="-170.5,482.5 -169.9,482.7 -169.8,481.9 -169,481.8 -168.5,481.3 -168.2,480.6 -167.6,480.4 
		-167.1,480.1 -166.6,479.8 -166.8,479.3 -166.1,479.2 -166,478.9 -165.2,479 -164.8,478.4 -164.3,477.8 -164.5,476.9 -163.8,476.4 
		-163.5,475.6 -162.6,475.8 -162.5,475.4 -162,475 -161.4,474.7 -160.5,474.7 -160.7,473.6 -160.3,473.1 -159.4,472.9 -159.4,472.1 
		-158.8,471.8 -158.7,471 -157.9,470.5 -157.6,469.8 -157.2,469.2 -157.4,468.4 -157,467.9 -156,467.6 -155.8,466.9 -155.9,466 
		-155.8,465.6 -154.6,465 -154.6,464.7 -154.3,464.3 -154.3,463.4 -153.8,462.9 -153.2,462.8 -152.9,462.3 -153,461.7 -153.3,460.8 
		-152.4,460.6 -151.7,460.4 -151.1,459.9 -150.3,459.6 -150.1,458.8 -150.6,457.9 -150.1,457.3 -149.4,456.7 -149.3,456 
		-149.1,455.4 -148.7,454.8 -148.3,454.3 -147.9,453.8 -148.3,453.2 -147.7,452.7 -146.8,452.4 -147.2,452 -146.6,453 -147.2,452.2 
		-146.5,451.6 -146.9,450.7 -146.7,450 -146.2,449.4 -145.4,448.9 -145.4,448.1 -145.3,447.4 -145.2,446.6 -145.1,445.9 
		-145.1,445.2 -144.3,444.5 -144.4,443.7 -145.1,442.9 -144.3,442.8 -144.1,442 -143.4,441.7 -143.1,441.1 -143.5,440.3 -143,439.7 
		-142.9,439 -142.7,438.4 -142.4,437.7 -142.1,437 -142.2,436.2 -142,435.6 -141.8,434.9 -141,434.3 -140.9,433.6 -141.4,432.8 
		-141.3,432.1 -140.8,431.4 -141.2,430.7 -140.5,430 -140.5,429.3 -140.4,428.6 -140.6,427.8 -140.3,427.1 -140.5,427 -140.9,426.3 
		-140.6,426 -141,425.6 -140.7,425.5 -141.5,425 -141.3,424.1 -141.7,423.4 -141.7,422.7 -141.7,422 -141.2,421.2 -141.7,420.5 
		-141.7,419.7 -141.6,419 -141.4,418.3 -141.5,417.6 -141.3,416.9 -141.6,416.1 -140.8,415.5 -141.1,414.7 -141.4,413.9 
		-140.5,413.3 -140.9,412.5 -141.1,411.8 -140.5,411 -140.7,410.3 -140.7,409.6 -140.7,408.8 -141.3,408.7 -141.2,407.9 -141,407.1 
		-141.6,406.4 -141.5,406.2 -141.5,405.7 -141.1,405 -141.6,405 -141.3,404.1 -142.2,403.6 -142.1,402.6 -142,402.4 -142.5,401.8 
		-143.3,401.5 -142.9,400.5 -143.6,400.1 -143.5,399.3 -144.2,398.8 -144.2,398.1 -143.8,397.8 -143.2,397 -143.5,396.7 
		-143.9,395.9 -144.7,395.8 -144.5,395.2 -144.9,394.6 -145,393.8 -145.6,393.3 -146.4,393.1 -146.3,392.4 -146.9,392.6 
		-146.5,391.9 -146.4,391.1 -146.3,390.3 -146.8,389.5 -147.1,389.4 -146.9,389.2 -146.9,389 -147.2,388.3 -147.4,388.3 -148.3,388 
		-148,387 -148.3,386.9 -148.6,386.3 -148.6,386.1 -149.3,385.8 -149.2,385 -149.4,384.4 -150.1,383.9 -150,383.2 -150.6,383.1 
		-151,382.9 -151.1,381.8 -151.3,381.8 -151.9,381.3 -152.3,380.5 -152.4,379.7 -152.3,379.6 -152.4,378.8 -152.5,378 -153,377.4 
		-153.6,376.9 -154.5,376.8 -154.8,376.1 -155.3,376.2 -155.5,375.3 -155.6,374.4 -155.7,374.5 -155.6,373.7 -156.2,373.2 
		-156.4,372.3 -157.4,372.5 -157.9,372 -158.5,371.7 -159.3,371.7 -160,371.5 -159.9,371.1 -159.9,371 -160.4,370.5 -160.3,370.1 
		-160.3,369.9 -160.7,369.4 -161.6,369.1 -161.8,368.7 -161.7,368.5 -162.7,368.5 -163,367.8 -163.5,367.2 -163.7,366.4 
		-163.1,366.1 -163.8,366.4 -163.4,365.6 -164.3,365.6 -164.4,364.7 -165.2,364.5 -165.3,363.7 -165.7,363.1 -166.6,363.5 
		-166.7,362.3 -166.9,362.2 -167.6,362 -168.5,361.9 -168.9,361.1 -169,360.3 -169.8,359.9 -169.8,359 -170.2,358.4 -171.1,358.1 
		-171.6,357.5 -171.9,357.7 -172.3,357.3 -172.3,356.9 -173.1,356.9 -173.9,356.7 -174,355.7 -174.6,355.3 -175.5,355.4 
		-176.1,355.3 -176.4,355.1 -176.7,354.6 -176.8,354.5 -177.6,354.6 -178.2,354.2 -178.7,353.7 -179.2,353.2 -179.6,353.3 
		-180,352.7 -180.8,352.7 -181.1,351.9 -182.1,352 -182,351 -182.6,350.7 -183.4,350.4 -184.1,349.9 -184.2,349.6 -184.8,349.1 
		-185.8,349.1 -186.5,348.8 -186.9,348 -187.7,347.7 -188,347.9 -188.7,347.7 -189.2,347.1 -190.1,347.5 -190.6,346.7 -191.3,346.7 
		-191.8,346.5 -192.6,346.6 -193.2,346.1 -193.8,345.6 -194.7,345.6 -195.3,345.2 -196,345.7 -196,344.8 -196.2,344.8 -197.1,345.4 
		-197.7,345 -198,344 -198.9,344.1 -199.4,343.7 -200.1,344 -200.8,343.2 -201.1,343.6 -201.4,343.3 -201.6,343.3 -202.2,342.6 
		-202.9,343.4 -203.7,343.1 -204.5,342.7 -205.2,342.9 -205.7,342.3 -205.9,342.4 -206.6,342.5 -207.2,342 -207.3,341.8 -208,341.8 
		-208.8,341.8 -209.5,342 -210.3,342 -211,342.3 -211.8,341.6 -212.5,342.2 -212.7,342.5 -213.4,341.7 -213.6,341.8 -214.3,341.7 
		-214.8,341.3 -215.4,341.1 -216.1,341.5 -216.9,340.8 -217.6,341.7 -218.3,341.6 -219.1,341.3 -219.1,341 -219.7,341 -220.3,341.5 
		-221,340.6 -221.6,341.2 -221.9,341 -222.6,340.7 -223.4,341.1 -224.1,341.3 -224.9,341.4 -225,341 -225.7,340.7 -226.4,341.2 
		-227,341.5 -227.7,341.1 -228.2,341.8 -229.1,341.2 -229.1,341.5 -229.7,342 -230.6,341.5 -231.3,341.8 -231.9,342.1 -232.4,342.8 
		-232.7,342.1 -233.4,342.5 -234.1,342.3 -234.8,342.6 -235.5,342.4 -236.2,342.7 -236.9,342.5 -237.7,342.5 -238.1,343.1 
		-238.7,343.1 -239.3,343.6 -240,343.7 -240.4,342.6 -240.8,343.3 -241.5,343 -242.3,343.2 -242.9,343.5 -243.6,343.6 -244.4,343.7 
		-245,344.1 -245.6,344.7 -246.2,345 -246.7,344.5 -247.2,345.3 -248.1,345.1 -248.8,345.2 -249.5,345.5 -249.9,346.2 -250.6,346.5 
		-251,346.2 -251.4,347 -252.3,347 -253,347.2 -253.5,347.8 -253.9,348.7 -254.9,348.4 -254.9,349.3 -255.6,348.2 -255.9,348.4 
		-256.5,348.9 -257.3,348.5 -258,349 -257.9,349.8 -258.3,350.6 -259,350.8 -259.9,350.8 -260.1,351.6 -260,351.6 -260.4,351.6 
		-260.5,352 -261.1,352.3 -261.4,353 -261.9,353.5 -262.7,353.7 -263.5,353.8 -263.7,354.8 -264.5,354.9 -265,354.5 -265.5,355.3 
		-266,356 -266.7,356.3 -267.7,356.1 -268,356.2 -268.2,357.1 -268.7,357.5 -269.4,357.7 -270.1,357.8 -270.3,357.9 -271.1,358.1 
		-271.3,359.2 -272.3,359 -272.7,359.8 -273.1,360.5 -274,360.6 -274.5,361.2 -274.7,362 -274.9,362.3 -275.7,362.5 -276.4,362.7 
		-277.1,362.9 -277.7,363.4 -278,364 -278.6,364.4 -279.1,364.9 -279.5,365.5 -279.4,366 -279.8,366.5 -280.1,367.2 -280.8,367.5 
		-281.1,368.2 -281.7,368.6 -281.9,368.8 -282,369.2 -282,370.1 -282.6,370.3 -283.3,370.5 -283.3,371.3 -282.8,371.4 -283.1,371.7 
		-283,372.1 -283.6,372.7 -284.3,373.2 -284.5,374 -285.1,374.5 -285.7,375 -285.9,375.8 -286.1,376 -287,376.2 -287.1,377 
		-287.6,377.5 -287.8,378.2 -288.1,378.8 -288,379.6 -288.7,380.1 -288.8,380.3 -288.8,380.8 -288.8,380.9 -289.3,381.4 -289.8,382 
		-290.1,382.6 -290.4,383.4 -290.1,384.1 -290.3,384.2 -290.9,384.4 -291.5,384.9 -291.7,385.2 -291.5,385.3 -292.3,385.7 
		-292.5,386.4 -292.4,387.2 -292.9,387.7 -292.9,388 -293,388.7 -293.7,389.3 -293.2,390.1 -293.5,390.6 -294.4,391 -294.4,391.9 
		-294.4,392.8 -295.1,393.3 -295.4,394.1 -295.9,394 -296.5,394.5 -296.5,395.4 -296.6,396.2 -297.2,396.1 -297,396.8 -296.6,397.5 
		-296.7,398.3 -296.9,399.1 -298,399.4 -297.8,400.3 -298,401 -298.1,401.1 -297.9,401.9 -297.9,402.6 -298.5,403.3 -297.9,404.1 
		-298.9,403.9 -299.2,404.7 -299.2,405.5 -299.5,406.3 -299.4,407.1 -299.2,407.9 -298.7,408 -298.6,408.7 -299.6,409.3 -299.4,410 
		-299.9,410.6 -299.9,410.7 -299.8,411.7 -300.1,412.3 -301.2,412.7 -300.6,413.6 -300.8,413.7 -300.7,413.9 -301.4,414 
		-300.8,414.2 -301.4,414.3 -300.7,415 -300.9,415.7 -301.3,416.4 -300.7,417.1 -300.5,417.8 -300.8,418.5 -301,419.2 -300.8,419.9 
		-301,420.6 -301.2,420.7 -301.3,421.4 -300.8,422.1 -301,422.8 -300.8,423.5 -300.5,423.8 -300.6,424.6 -300.7,425.6 -300.5,425.7 
		-301.1,426.3 -301,427.1 -300.7,427.8 -300.5,428.3 -300.3,429 -300,429.2 -299.5,429.8 -299.4,430.6 -300.1,431.3 -300,432.1 
		-299.8,432.1 -300,433 -299.6,433.8 -299.7,434 -299.4,434.8 -299.6,435.7 -299.8,436 -299.4,436.6 -299.3,437.4 -298.8,438 
		-299.2,438.7 -298.9,438.8 -299.2,439.5 -299.1,440.2 -298.9,440.9 -298.3,441.5 -297.9,442 -298.2,443.1 -297.1,443 -297.3,443.4 
		-297.2,444.2 -296.5,444.7 -296.4,445.5 -296.9,446.2 -296.6,446.4 -296.4,447.1 -296.5,448 -296.2,448.7 -295.8,449.3 -295.5,450 
		-294.6,450.5 -294.8,450.7 -294.4,451.4 -294.7,452.3 -294.5,453 -294.1,453.6 -293.9,454.4 -292.8,454.5 -292.9,455.6 
		-292.8,455.7 -292.1,456.2 -291.7,456.9 -292.1,457 -291.8,457.7 -291.7,458.4 -291.5,459 -291.7,459.8 -291,460.1 -291.3,460.6 
		-290.5,460.8 -290.5,461.6 -290,462 -289.6,462 -289,462.5 -288.6,462.4 -289.1,463.4 -287.9,463.4 -287.9,464.4 -286.9,464.7 
		-287.7,465.6 -286.8,465.4 -287.1,466.5 -286.4,466.8 -285.9,467.2 -285.6,467.9 -284.5,467.7 -285,468.2 -285,468.9 -284.7,469.5 
		-284.3,470.1 -283.8,470.5 -283.3,470.9 -283.2,471.1 -283,471.9 -282.2,472.4 -282,472.2 -281.6,472.7 -281.5,473.5 -280.6,473.7 
		-280.2,474.3 -279.8,474.7 -280,475.3 -279.5,475.9 -279,476.4 -278.6,477 -278.5,477.7 -278,476.7 -277.2,477 -276.6,477.5 
		-276.9,477.9 -276.2,477.9 -276,478.6 -275.4,479.1 -275.4,478.8 -275.4,479.1 -275.5,479.8 -275.4,480.6 -274.7,480.9 
		-273.8,481.1 -273.8,482 -273.5,482.1 -272.6,482.5 -272,482.3 -271.3,482.8 -271.7,483.1 -271.2,483.8 -270.2,483.6 -270.1,483.8 
		-269.8,484.7 -269,484.9 -268.7,485.5 -267.7,485.6 -267.1,486.1 -267.4,487.1 -266.6,487.1 -265.6,486.9 -264.9,487.5 
		-264.7,487.4 -264.3,488.1 -263.6,488.4 -263.3,489.1 -262.9,489.7 -262.5,490.3 -261.5,490.2 -261.1,490.8 -260.9,490.9 
		-260.3,490.2 -259.5,490.7 -258.9,491.1 -258.2,491.4 -257.4,491.6 -257.1,492.4 -256.5,492.9 -256.3,493 -255.5,492.5 -255,493.2 
		-254.1,492.8 -253.5,493.3 -253.1,494 -252.6,494.4 -252.4,494.7 -251.7,494.7 -251,494.8 -250.4,495.3 -249.7,495.5 -249.8,496.2 
		-249.1,495.9 -248.6,496.3 -248,496.6 -247.5,497.1 -246.9,497.3 -246.5,496.9 -246,497.7 -245.1,497.3 -244.5,498 -243.6,497.3 
		-243.1,498.4 -242.2,497.7 -241.6,498.4 -241,498.8 -240.3,499.1 -240,498.9 -239.4,498.5 -239.3,499 -238.5,498.8 -237.6,498.6 
		-237.6,498.5 -236.7,498.9 -236.4,498.9 -235.8,498.3 -235,498.6 -234.3,498.8 -233.7,499.3 -233.1,499.6 -232.3,499.2 
		-231.6,499.6 -231.4,499.6 -230.8,499.9 -230,499.7 -229.7,500.7 -228.7,500.2 -228.1,500.4 -227.5,500.7 -227.3,500.7 
		-226.7,500.9 -226,500.6 -225.3,501.3 -224.6,501.4 -224,500.8 -223.7,501.3 -223,501 -222.3,500.6 -221.7,500.9 -221,500.9 
		-220.3,500.6 -219.6,501.4 -218.9,501.1 -218.6,500.5 -217.9,500.6 -217.2,500.9 -216.5,500.6 -216.3,500.5 -215.6,501.2 
		-215,500.8 -214.2,500.5 -213.4,501.1 -213.2,501.2 -212.5,500.9 -211.9,500.3 -211.1,500.7 -210.5,500.1 -209.7,500.6 
		-209.1,500.4 -208.6,499.6 -207.9,499.8 -207.2,500.1 -206.5,500.3 -205.9,499.6 -205.2,500 -204.8,499.3 -204.2,498.9 
		-203.2,499.3 -202.7,499.1 -202,498.6 -201.1,498.6 -200.9,498.4 -200.3,497.9 -199.6,498.4 -198.9,498.2 -198.3,497.8 
		-197.5,498.2 -197,497.2 -196.3,497.4 -196,497.4 -195.4,497.4 -194.9,497 -194.9,496.7 -194,496.8 -193.5,496.2 -192.9,495.7 
		-192.1,495.8 -191.4,495.7 -190.7,495.6 -189.9,495.1 -189.8,495.7 -189.1,495.3 -188.4,495.1 -188.2,494.2 -187.3,494.3 
		-187.1,493.4 -186.3,493.4 -186.3,493.1 -185.5,492.8 -185,492.2 -184.4,491.9 -183.7,491.6 -183,491.6 -182.7,491.3 -182.1,490.8 
		-181.4,491.2 -180.8,491.4 -180.1,491.5 -180,491.9 -179.3,492.2 -178.3,492.3 -178.2,492.7 -177.8,493.2 -177.6,493.7 
		-177.2,493.9 -176.7,494.4 -176.4,494.3 -175.6,494.2 -175,494.5 -174.7,494.2 -173.9,494.3 -173.2,494.6 -172.5,494.6 -172,495.3 
		-171.4,495.8 -170.6,495.4 -169.9,495.6 -169.2,495.7 -169,496.1 -169.1,495.9 -168.9,495.5 -168.7,495.2 -168.2,495.6 
		-167.5,495.8 -166.8,495.8 -166.2,496.1 -166,496.1 -165.4,496.9 -164.6,496.5 -164.4,497 -164.2,496.8 -164.1,496.4 -163.4,496.5 
		-162.7,497.4 -161.9,497.2 -161.2,496.9 -160.4,497 -159.7,496.9 -158.9,496.9 -158.9,496.4 -158.3,497.1 -157.6,496.8 
		-156.9,496.3 -156.2,496.2 -155.5,496.2 -154.8,496 -154,496.1 -153.5,495.3 -152.7,495.6 -151.8,495.8 -151.7,495.2 -152,494.9 
		-152.6,494.2 -153.6,494.6 -154.1,493.7 -154.3,493.7 -154.7,493 -155.2,492.7 -156.2,492.8 -156.5,492.1 -156.5,491.9 
		-157.3,491.5 -157.3,490.5 -157.7,490.4 -158.3,490.8 -159,491 -159.3,490.2 -160.1,490.1 -161,490.1 -161.3,489.4 -161.5,489.3 
		-162,489 -162.8,488.5 -163.5,489.2 -164.2,488.5 -165,488.7 -165.2,487.9 -165.8,488.2 -165.8,486.9 -166.2,486.9 -166.7,486.5 
		-167,485.7 -167.1,485.6 -168.3,485.5 -168.2,484.4 -169.1,484.2 -169.4,483.4 -170.1,482.9 	"/>
</g>
<path fill="#FFFFFF" d="M-186.2,405.2c-3-4.1-10-6.8-20.6-8.1c-5.4-1.2-14.8,1.7-23.3,6.2c-8.5,4.5-16.2,10.6-18.3,15.7
	c-4.9,9.5-6.6,16.8-5,21.6c0.9,2.6,2.5,3.6,2.9,3.8c0.6,0.4,1.3,0.7,2,1c0,0,0,0,0,0l0,0c1.5,0.6,3.2,1.1,5.1,1.4l40.6,11
	c0,0,0,0,0,0c0.2,0,0.4,0.1,0.5,0c0,0,0,0,0.1,0c0.2,0,0.3-0.1,0.5-0.2c0,0,0,0,0,0c0,0,0,0,0,0c0.2-0.1,0.3-0.2,0.4-0.3
	c0,0,0,0,0,0c0.1-0.1,0.2-0.3,0.3-0.5c0,0,0,0,0,0l13.9-39.6c1.2-2.5,1.9-4.9,2.1-7.2C-184.7,409.2-184.6,407.4-186.2,405.2z
	 M-188,409.3c0,0.1,0,0.1,0,0.2c0,0.5-0.1,1-0.2,1.6l-1.1,3l-14.6-8.4c1-1.7,1.5-3.3,1.3-4.7C-187.6,403.8-188,409.3-188,409.3z
	 M-231.3,424.2l-9.5,14.7l1-12.7C-237.2,425.9-234.3,425.2-231.3,424.2z M-205.8,408.3l11,6.3l-17.5-0.5
	C-209.7,412.2-207.5,410.3-205.8,408.3z M-224.9,421.6c1.2-0.5,2.4-1.1,3.5-1.7c1.2-0.6,2.3-1.3,3.4-1.9l3.4,14.9L-224.9,421.6z
	 M-227.2,423.9l12.6,13.7c-9,4.4-18.2,6.6-25.5,6.2L-227.2,423.9z M-214.8,417.3l23.7,0.7c-3.8,6.2-10.8,12.5-19.6,17.5
	L-214.8,417.3z M-207.7,400.2c0.1,0,0.3,0.1,0.4,0.1c0,0,0.1,0,0.1,0c0.6,0.2,1.1,0.5,1.3,0.8c0.4,0.8-0.1,2.2-1.4,4
	c-0.1,0.1-0.2,0.2-0.2,0.3c0,0,0,0,0,0c-2.6,3.2-7.7,7.6-15.3,11.5c-7.5,4-14,5.8-18.2,6.1c0,0,0,0,0,0c-0.1,0-0.3,0-0.4,0
	c-2.2,0.1-3.7-0.3-4.1-1.1c-0.2-0.4-0.2-0.9,0-1.5c0,0,0-0.1,0.1-0.1c0.1-0.1,0.1-0.3,0.1-0.4c1.4-3.2,7.2-8.8,16.7-13.8
	C-219.1,401.1-211.2,399.5-207.7,400.2z M-250.3,439.5c-0.7-1.9-1-6.3,2.7-14.8c1.1,1,2.6,1.5,4.6,1.6l-1.3,16.8l-3.1-0.8
	c-0.5-0.2-1-0.5-1.4-0.7c-0.1,0-0.1-0.1-0.2-0.1C-249,441.4-249.8,441-250.3,439.5z M-213.1,440.5l7.1,13.4l-26.2-7.1
	C-226.2,445.9-219.9,443.9-213.1,440.5z M-202.7,452.1l-7.1-13.4c6-3.3,11.9-7.7,16.1-12.2L-202.7,452.1z"/>
<g>
	<polygon fill="#FFFFFF" points="-205.7,377.3 -208.4,390.1 -210.5,389.8 -209.6,376.7 	"/>
</g>
<g>
	<polygon fill="#FFFFFF" points="-184.4,386.4 -191.7,395.2 -193.5,393.9 -187.6,384.1 	"/>
</g>
<g>
	<polygon fill="#FFFFFF" points="-232.2,377.2 -226.6,393.3 -228.6,394.1 -235.9,378.7 	"/>
</g>
<g>
	<polygon fill="#FFFFFF" points="-252.8,392.7 -245,403.4 -246.6,404.8 -255.9,395.3 	"/>
</g>
<g>
	<polygon fill="#FFFFFF" points="-270.2,409.3 -254.9,416.8 -255.7,418.8 -271.8,413 	"/>
</g>
<g>
	<polygon fill="#FFFFFF" points="-272.4,432.5 -259.2,432.6 -259.1,434.8 -272.2,436.5 	"/>
</g>
</svg>
